<svg xmlns="http://www.w3.org/2000/svg" xmlns:xlink="http://www.w3.org/1999/xlink" viewBox="0 0 36.15 35.98"><defs><style>.cls-1{fill:#fdfefe;}.cls-2{fill:url(#linear-gradient);}.cls-3{fill:url(#linear-gradient-2);}.cls-4{fill:url(#linear-gradient-3);}.cls-5{fill:url(#linear-gradient-4);}.cls-6{fill:url(#linear-gradient-5);}.cls-7{fill:url(#linear-gradient-6);}</style><linearGradient id="linear-gradient" y1="17.99" x2="36.15" y2="17.99" gradientUnits="userSpaceOnUse"><stop offset="0" stop-color="#81c5e8"/><stop offset="1" stop-color="#1b75bc"/></linearGradient><linearGradient id="linear-gradient-2" x1="71.52" y1="-2.43" x2="21.25" y2="31.48" gradientUnits="userSpaceOnUse"><stop offset="0" stop-color="#3785c6"/><stop offset="1" stop-color="#d7f0fc"/></linearGradient><linearGradient id="linear-gradient-3" x1="65.2" y1="-11.8" x2="14.93" y2="22.1" xlink:href="#linear-gradient-2"/><linearGradient id="linear-gradient-4" x1="62.01" y1="-16.54" x2="11.74" y2="17.37" xlink:href="#linear-gradient-2"/><linearGradient id="linear-gradient-5" x1="58.21" y1="-22.16" x2="7.95" y2="11.75" xlink:href="#linear-gradient-2"/><linearGradient id="linear-gradient-6" x1="66.79" y1="-9.44" x2="16.52" y2="24.46" xlink:href="#linear-gradient-2"/></defs><title>iconNote_1</title><g id="Layer_2" data-name="Layer 2"><g id="Layer_1-2" data-name="Layer 1"><path class="cls-1" d="M13.19,25.41c1.33,0,2.66,0,4,0-1.33,0-2.66,0-4,0s-2.75,0-4.12,0C10.45,25.43,11.82,25.41,13.19,25.41Z"/><path class="cls-1" d="M7.94,13.33c3.31,0,6.63,0,9.94,0h0C14.57,13.32,11.25,13.31,7.94,13.33Z"/><path class="cls-1" d="M11.75,6.21h0Z"/><path class="cls-2" d="M33.17,0c-10,0-20,0-30,0C.78,0,0,.76,0,3.15,0,13,0,22.92,0,32.8a4.7,4.7,0,0,0,.19,1.43A3,3,0,0,0,.87,35.4,1.48,1.48,0,0,0,1.93,36c.35,0,.71,0,1.06,0H22a4.17,4.17,0,0,0,1.76-.19q0-5.58-.07-11.15c0-.67.08-1.19.95-1.18,3.39,0,6.78,0,10.17,0a.86.86,0,0,1,.82.44.82.82,0,0,0,.37-.6A1.78,1.78,0,0,0,36,23q0-.74,0-1.49t0-1.49q0-.74,0-1.49t0-1.49q0-.74,0-1.49t0-1.49q0-.74,0-1.49t0-1.49q0-.74,0-1.49t0-1.49q0-.74,0-1.49t0-1.49q0-.74,0-1.49t0-1.49c0-.1,0-.19,0-.29a.89.89,0,0,0,0-.27,2.3,2.3,0,0,0-.1-.26A2.52,2.52,0,0,0,35.65,1,2.07,2.07,0,0,0,35,.37a2.66,2.66,0,0,0-.82-.29,5.19,5.19,0,0,0-1-.08Zm-25,5.61q7.16,0,14.32,0c.9,0,1.26.27,1.27,1.22s-.57,1.12-1.37,1.11H11.75l-3.54,0c-.82,0-1.35-.1-1.35-1.13S7.27,5.6,8.15,5.61Zm0,6.6q9.31,0,18.61,0c1,0,1.59.21,1.56,1.36s-.83.95-1.5,1H17.44c-3.07,0-6.15,0-9.22,0-.82,0-1.36-.09-1.35-1.13S7.28,12.21,8.16,12.21Zm8.42,15.61c-2.47-.26-5.63.09-7.34,0-1.1-.05-2.34.08-2.37-.91,0-.81.23-1.21,1.12-1.19l1.27,0c1.27,0,2.55,0,3.82,0s2.47,0,3.7,0l1.23,0c.92,0,1.09.44,1.08,1.22A5.45,5.45,0,0,1,16.58,27.83ZM26.9,21.46h-14l-4.61,0c-.88,0-1.46-.09-1.44-1.21s.58-1.11,1.37-1.11q9.38,0,18.76,0c.82,0,1.34.1,1.36,1.13S27.76,21.47,26.9,21.46Z"/><path class="cls-3" d="M35.64,23.9a.86.86,0,0,0-.82-.44c-3.39,0-6.78,0-10.17,0-.86,0-1,.51-.95,1.18q0,5.58.07,11.15C27.87,32,31.84,28,35.64,23.9Z"/><path class="cls-4" d="M27,19.14q-9.38,0-18.76,0c-.8,0-1.36.06-1.37,1.11s.56,1.22,1.44,1.21l4.61,0h14c.86,0,1.48,0,1.46-1.2S27.81,19.14,27,19.14Z"/><path class="cls-5" d="M8.22,14.54c3.07,0,6.15,0,9.22,0h9.39c.68,0,1.48.21,1.5-1s-.6-1.36-1.56-1.36q-9.31,0-18.61,0c-.88,0-1.29.22-1.3,1.19S7.4,14.54,8.22,14.54Z"/><path class="cls-6" d="M8.21,7.94l3.54,0H22.37c.8,0,1.38-.05,1.37-1.11s-.36-1.23-1.27-1.22q-7.16,0-14.32,0c-.88,0-1.29.23-1.29,1.2S7.39,7.95,8.21,7.94Z"/><path class="cls-7" d="M18,25.74l-1.23,0c-1.23,0-2.47,0-3.7,0s-2.55,0-3.82,0L8,25.74c-.89,0-1.14.38-1.12,1.19,0,1,.24.9,2.37.91,1.95,0,4.75,0,7.34,0,2.1,0,2.52.21,2.53-.86C19.11,26.18,18.94,25.71,18,25.74Z"/></g></g></svg>