<svg xmlns="http://www.w3.org/2000/svg" viewBox="0 0 44.35 44.33"><defs><style>.cls-1{fill:#fff;}</style></defs><title>colorpicker</title><g id="Layer_2" data-name="Layer 2"><g id="Layer_5" data-name="Layer 5"><path class="cls-1" d="M29.69,5.47c1.15-1.1,2.28-2.17,3.38-3.26A7.23,7.23,0,0,1,36.72.12a5.28,5.28,0,0,1,2.69.13,7.11,7.11,0,0,1,3.22,1.81,6.31,6.31,0,0,1,.09,8.56c-1.12,1.19-2.3,2.32-3.46,3.47-.17.17-.36.3-.53.45A16,16,0,0,1,40,16a4.54,4.54,0,0,1,.38,4.95,4.56,4.56,0,0,1-4.27,2.63,5.71,5.71,0,0,1-2-.42,1.63,1.63,0,0,0-2,.42Q23.8,32,15.4,40.34a3.91,3.91,0,0,1-1.8,1Q8.37,42.8,3.16,44.24a1.58,1.58,0,0,1-1.78-.47,10.56,10.56,0,0,0-.92-.92,1.36,1.36,0,0,1-.39-1.49c1-3.72,2-7.43,3.08-11.14a2.76,2.76,0,0,1,.72-1.1q8.14-8.16,16.3-16.3c.16-.16.31-.32.48-.48a2,2,0,0,0,.48-2.4,4.65,4.65,0,0,1,3.11-6.24,4.58,4.58,0,0,1,4.63,1.07C29.17,5,29.47,5.29,29.69,5.47Zm1.76,15.71L23.23,13c-.2.18-.47.41-.71.66Q14.17,22,5.83,30.4a2.77,2.77,0,0,0-.67,1.13c-.7,2.41-1.35,4.82-2,7.24-.29,1.07-.58,2.14-.88,3.28.2,0,.32,0,.44-.08,3-.83,6.09-1.69,9.15-2.47a6,6,0,0,0,2.88-1.69Q22.12,30.37,29.56,23C30.18,22.36,30.84,21.76,31.45,21.19Z"/></g></g></svg>