<svg xmlns="http://www.w3.org/2000/svg" viewBox="0 0 112.1 99.01"><defs><style>.cls-1{fill:#fff;}</style></defs><title>Asset 29</title><g id="Layer_2" data-name="Layer 2"><g id="Layer_5" data-name="Layer 5"><path class="cls-1" d="M111.66,2.59C84,31.07,59.69,62,41.63,98.17a1.52,1.52,0,0,1-2.58.22c-2-2.81-4.53-6-7.44-9.62-7-8.63-9.88-12-15.85-19.27C9,61.26-4.44,45.44,1.46,37.91c4.26-5.43,12.84-3.52,17.25,1.37,6.53,7.25,2.74,2.66,8.83,10.3,1,1.2,5.17,6.56,11.11,14.84a1.52,1.52,0,0,0,2.53-.09A180.47,180.47,0,0,1,73.5,25.17a156,156,0,0,1,36.4-25A1.52,1.52,0,0,1,111.66,2.59Z"/></g></g></svg>